<?xml version="1.0" encoding="UTF-8"?>
<svg id="Layer_1" data-name="Layer 1" xmlns="http://www.w3.org/2000/svg" xmlns:xlink="http://www.w3.org/1999/xlink" viewBox="0 0 1743.43 1462.8">
  <defs>
    <style>
      .cls-1 {
        fill: url(#linear-gradient-2);
      }

      .cls-2 {
        fill: url(#linear-gradient-3);
      }

      .cls-3 {
        fill: url(#linear-gradient);
      }

      .cls-4 {
        fill: url(#linear-gradient-4);
      }
    </style>
    <linearGradient id="linear-gradient" x1="0" y1="1228.86" x2="433.17" y2="1228.86" gradientUnits="userSpaceOnUse">
      <stop offset="0" stop-color="#0a5130"/>
      <stop offset="1" stop-color="#a09233"/>
    </linearGradient>
    <linearGradient id="linear-gradient-2" x1="987.92" y1="1076.82" x2="1495.85" y2="1076.82" gradientUnits="userSpaceOnUse">
      <stop offset="0" stop-color="#0a5130"/>
      <stop offset="1" stop-color="#a09233"/>
    </linearGradient>
    <linearGradient id="linear-gradient-3" x1="149.05" y1="619.94" x2="1743.43" y2="619.94" gradientUnits="userSpaceOnUse">
      <stop offset="0" stop-color="#0a5130"/>
      <stop offset="1" stop-color="#a09233"/>
    </linearGradient>
    <linearGradient id="linear-gradient-4" x1="282.36" y1="435.68" x2="1106.14" y2="435.68" gradientUnits="userSpaceOnUse">
      <stop offset="0" stop-color="#0a5130"/>
      <stop offset="1" stop-color="#a09233"/>
    </linearGradient>
  </defs>
  <path class="cls-3" d="M200.76,994.92l-19.86,49.22L0,1462.8H242.96l190.21-458.53c-112.26,14.56-186.85,10.62-232.41-9.35Z"/>
  <path class="cls-1" d="M987.92,805.26l264.98,646.08,242.96,1.01-319.81-751.05c-68.42,38.4-130.86,75.34-188.13,103.96Z"/>
  <path class="cls-2" d="M1743.12,262.29s-9.51-26.56-89.25,5.09c-79.35,31.48-210.56,112.41-210.56,112.41l-322.17-48.71-84.78,27.83,247.08,111.33-184.36,107.24-183.89,106.97-82.31,47.88-227.7,104.37s-51.58,20.9-114.98,37.24c-85.82,22.12-193.27,35.87-223.79-21.86-22.78-43.11-2.69-126.05,101.37-275.15,0,0-362.85,323.53-153.83,396.56,46.22,16.15,120.42,20.04,232.68,5.48,31.94-4.14,66.75-12.76,105.08-20.04,0,0,143.5-31.61,408.67-164.15,57.27-28.63,120.24-61.83,188.66-100.23,56.47-31.69,116.63-66.9,180.42-106.04v271.37l70.25-44.07,89.63-313.12,218.01-150.76s40-38.81,35.78-89.66Z"/>
  <path class="cls-4" d="M499.59,850.08L747.98,232.53l177.35,422.75,180.81-104.43L871.28,.52,750.7,.02v-.02h-124.95L282.36,828.99c30.51,57.74,134.84,47.84,217.23,21.09Z"/>
</svg>