<?xml version="1.0" encoding="utf-8"?>
<!-- Generator: Adobe Illustrator 27.0.0, SVG Export Plug-In . SVG Version: 6.00 Build 0)  -->
<svg version="1.1" id="Layer_1" xmlns="http://www.w3.org/2000/svg" xmlns:xlink="http://www.w3.org/1999/xlink" x="0px" y="0px"
	 viewBox="0 0 2000 2000" style="enable-background:new 0 0 2000 2000;" xml:space="preserve">
<style type="text/css">
	.st0{fill:#9ECC3B;}
	.st1{fill:#4577BC;}
</style>
<g>
	<path class="st0" d="M334.2,1263.5l-19.9,49.2l-180.9,418.7h243l190.2-458.5C454.3,1287.4,379.7,1283.5,334.2,1263.5z"/>
	<path class="st0" d="M1121.3,1073.9c57.3-28.6,119.7-65.6,188.1-104l319.8,751l-243-1L1121.3,1073.9z"/>
	<path class="st1" d="M1787.3,536c-79.3,31.5-210.6,112.4-210.6,112.4l-322.2-48.7l-84.8,27.8l247.1,111.3l-184.4,107.2l-183.9,107
		l-82.3,47.9l-227.7,104.4c0,0-51.6,20.9-115,37.2c-85.8,22.1-193.3,35.9-223.8-21.9c-22.8-43.1-2.7-126,101.4-275.2
		c0,0-362.9,323.5-153.8,396.6c46.2,16.1,120.4,20,232.7,5.5c31.9-4.1,66.7-12.8,105.1-20c0,0,143.5-31.6,408.7-164.1
		c57.3-28.6,120.2-61.8,188.7-100.2c56.5-31.7,116.6-66.9,180.4-106v271.4l70.2-44.1l89.6-313.1l218-150.8c0,0,40-38.8,35.8-89.7
		C1876.5,530.9,1867,504.3,1787.3,536z"/>
	<path class="st0" d="M633,1118.7l248.4-617.5l177.3,422.8l180.8-104.4l-234.9-550.3l-120.6-0.5v0h-125l-343.4,829
		C446.3,1155.3,550.6,1145.4,633,1118.7z"/>
</g>
</svg>
